HIERARCHY
ROOT Hips
{
	OFFSET 0.000000 0.000000 0.000000
	CHANNELS 6 Xposition Yposition Zposition Zrotation Yrotation Xrotation 
	JOINT LHipJoint
	{
		OFFSET 0.000000 0.000000 0.000000
		CHANNELS 3 Zrotation Yrotation Xrotation
		JOINT LeftUpLeg
		{
			OFFSET 1.363060 -1.794630 0.839290
			CHANNELS 3 Zrotation Yrotation Xrotation
			JOINT LeftLeg
			{
				OFFSET 2.448110 -6.726130 0.000000
				CHANNELS 3 Zrotation Yrotation Xrotation
				JOINT LeftFoot
				{
					OFFSET 2.562200 -7.039590 0.000000
					CHANNELS 3 Zrotation Yrotation Xrotation
					JOINT LeftToeBase
					{
						OFFSET 0.157640 -0.433110 2.322550
						CHANNELS 3 Zrotation Yrotation Xrotation
						End Site
						{
							OFFSET 0.000000 0.000000 0.000000
						}
					}
				}
			}
		}
	}
	JOINT RHipJoint
	{
		OFFSET 0.000000 0.000000 0.000000
		CHANNELS 3 Zrotation Yrotation Xrotation
		JOINT RightUpLeg
		{
			OFFSET -1.305520 -1.794630 0.839290
			CHANNELS 3 Zrotation Yrotation Xrotation
			JOINT RightLeg
			{
				OFFSET -2.542530 -6.985550 0.000000
				CHANNELS 3 Zrotation Yrotation Xrotation
				JOINT RightFoot
				{
					OFFSET -2.568260 -7.056230 0.000000
					CHANNELS 3 Zrotation Yrotation Xrotation
					JOINT RightToeBase
					{
						OFFSET -0.164730 -0.452590 2.363150
						CHANNELS 3 Zrotation Yrotation Xrotation
						End Site
						{
							OFFSET 0.000000 0.000000 0.000000
						}
					}
				}
			}
		}
	}
	JOINT LowerBack
	{
		OFFSET 0.000000 0.000000 0.000000
		CHANNELS 3 Zrotation Yrotation Xrotation
		JOINT Spine
		{
			OFFSET 0.028270 2.035590 -0.193380
			CHANNELS 3 Zrotation Yrotation Xrotation
			JOINT Spine1
			{
				OFFSET 0.056720 2.048850 -0.042750
				CHANNELS 3 Zrotation Yrotation Xrotation
				JOINT Neck
				{
					OFFSET 0.000000 0.000000 0.000000
					CHANNELS 3 Zrotation Yrotation Xrotation
					JOINT Neck1
					{
						OFFSET -0.054170 1.746240 0.172020
						CHANNELS 3 Zrotation Yrotation Xrotation
						JOINT Head
						{
							OFFSET 0.104070 1.761360 -0.123970
							CHANNELS 3 Zrotation Yrotation Xrotation
							End Site
							{
								OFFSET 0.000000 0.000000 0.000000
							}
						}
					}
				}
				JOINT LeftShoulder
				{
					OFFSET 0.000000 0.000000 0.000000
					CHANNELS 3 Zrotation Yrotation Xrotation
					JOINT LeftArm
					{
						OFFSET 3.362410 1.200890 -0.311210
						CHANNELS 3 Zrotation Yrotation Xrotation
						JOINT LeftForeArm
						{
							OFFSET 4.983000 -0.000000 -0.000000
							CHANNELS 3 Zrotation Yrotation Xrotation
							JOINT LeftHand
							{
								OFFSET 3.483560 -0.000000 -0.000000
								CHANNELS 3 Zrotation Yrotation Xrotation
								JOINT LeftFingerBase
								{
									OFFSET 0.000000 0.000000 0.000000
									CHANNELS 3 Zrotation Yrotation Xrotation
									JOINT LeftHandIndex1
									{
										OFFSET 0.715260 -0.000000 -0.000000
										CHANNELS 3 Zrotation Yrotation Xrotation
										End Site
										{
											OFFSET 0.000000 0.000000 0.000000
										}
									}
								}
								JOINT LThumb
								{
									OFFSET 0.000000 0.000000 0.000000
									CHANNELS 3 Zrotation Yrotation Xrotation
									End Site
									{
										OFFSET 0.000000 0.000000 0.000000
									}
								}
							}
						}
					}
				}
				JOINT RightShoulder
				{
					OFFSET 0.000000 0.000000 0.000000
					CHANNELS 3 Zrotation Yrotation Xrotation
					JOINT RightArm
					{
						OFFSET -3.136600 1.374050 -0.404650
						CHANNELS 3 Zrotation Yrotation Xrotation
						JOINT RightForeArm
						{
							OFFSET -5.241900 -0.000000 -0.000000
							CHANNELS 3 Zrotation Yrotation Xrotation
							JOINT RightHand
							{
								OFFSET -3.444170 -0.000000 -0.000000
								CHANNELS 3 Zrotation Yrotation Xrotation
								JOINT RightFingerBase
								{
									OFFSET 0.000000 0.000000 0.000000
									CHANNELS 3 Zrotation Yrotation Xrotation
									JOINT RightHandIndex1
									{
										OFFSET -0.622530 -0.000000 -0.000000
										CHANNELS 3 Zrotation Yrotation Xrotation
										End Site
										{
											OFFSET 0.000000 0.000000 0.000000
										}
									}
								}
								JOINT RThumb
								{
									OFFSET 0.000000 0.000000 0.000000
									CHANNELS 3 Zrotation Yrotation Xrotation
									End Site
									{
										OFFSET 0.000000 0.000000 0.000000
									}
								}
							}
						}
					}
				}
			}
		}
	}
}
MOTION
Frames: 10
Frame Time: 0.008333
-1.858998 17.536704 -1.621394 118.179742 -63.668689 -95.085401 -5.247840 -2.393375 3.321099 -6.388779 -16.283140 -91.322428 -5.727270 -2.780693 -9.014379 -1.672946 -7.773111 15.054150 -2.269800 0.000000 -57.248700 9.991768 5.569758 -4.051871 -13.883921 -1.699758 -28.060391 -0.246936 -0.309995 9.658459 -0.463256 -1.063204 1.147528 -0.510600 -0.000000 -59.310300 -0.519465 -0.663376 7.824848 -0.640166 -0.464191 -1.771503 -4.117681 -0.577891 -1.276620 10.807071 4.673277 0.090732 -4.425312 -0.359844 1.618064 0.000000 0.000000 0.000000 -6.106747 -8.907319 2.827663 -64.617753 -8.374497 8.869937 -2.497105 -29.924660 0.000925 2.502733 -4.919571 -0.112427 -0.061626 0.126451 -0.000000 0.000000 0.000000 0.000000 0.000000 0.000000 0.000000 22.582438 3.558141 3.052718 50.146640 18.169325 -7.666361 2.789816 12.347232 0.004555 -2.339541 9.542034 -0.202564 0.056860 -0.137469 0.000000 0.000000 0.000000 0.000000 0.000000 0.000000 0.000000 
-1.859515 17.536195 -1.621154 118.345651 -63.442811 -94.987162 -5.245727 -2.323748 3.269812 -7.390207 -16.397998 -91.165692 -5.901159 -2.840874 -9.292525 -1.742169 -8.208196 15.040493 -2.440800 -0.000001 -57.560500 10.005590 5.577744 -3.941956 -14.119995 -1.678112 -28.405383 -0.269453 -0.287437 9.522071 -0.454135 -1.024043 1.244443 -0.509301 0.000000 -59.316500 -0.501607 -0.667318 7.789393 -0.628277 -0.468748 -1.768932 -4.073533 -0.582265 -1.258880 10.696791 4.834171 0.160758 -4.412179 -0.359216 1.634171 0.000000 0.000000 0.000000 -6.242956 -8.979752 2.827546 -64.458951 -8.655893 8.714099 -2.490194 -29.927041 0.000780 2.536273 -4.931454 -0.114225 -0.061980 0.129072 -0.000000 0.000000 0.000000 0.000000 0.000000 0.000000 0.000000 22.474902 3.683020 3.060851 50.086071 18.402567 -8.028394 2.771202 11.771743 0.004370 -2.365078 9.483755 -0.203470 0.056704 -0.138249 0.000000 0.000000 0.000000 0.000000 0.000000 0.000000 0.000000 
-1.860358 17.535467 -1.619724 118.511348 -63.263510 -94.918176 -5.268566 -2.251443 3.220252 -8.329605 -16.512494 -90.962029 -6.041805 -2.857585 -9.330857 -1.774179 -8.381052 15.060671 -2.509901 -0.000000 -57.780600 10.004367 5.573109 -3.840415 -14.296356 -1.635533 -28.705863 -0.285844 -0.263254 9.384629 -0.448345 -1.007529 1.329924 -0.512300 0.000000 -59.290800 -0.437807 -0.674721 7.751356 -0.606248 -0.477202 -1.767271 -4.031657 -0.590743 -1.241361 10.579147 4.998105 0.232772 -4.398893 -0.358588 1.651360 0.000000 0.000000 0.000000 -6.381285 -9.043216 2.827142 -64.310698 -8.946694 8.572199 -2.483108 -29.915651 0.000624 2.573982 -4.943616 -0.116326 -0.062364 0.131712 -0.000000 0.000000 0.000000 0.000000 0.000000 0.000000 0.000000 22.353174 3.811459 3.065893 50.037230 18.625276 -8.409150 2.753436 11.237728 0.004215 -2.369709 9.419236 -0.202474 0.056457 -0.138965 0.000000 0.000000 0.000000 0.000000 0.000000 0.000000 0.000000 
-1.861684 17.534516 -1.617269 118.672333 -63.129205 -94.874253 -5.313242 -2.177842 3.173254 -9.202411 -16.623714 -90.697984 -6.148153 -2.835775 -9.170618 -1.767415 -8.273419 15.131253 -2.471001 -0.000000 -57.921600 9.991391 5.558460 -3.747986 -14.418256 -1.581887 -28.968650 -0.295863 -0.239017 9.260312 -0.444373 -1.002958 1.399274 -0.517399 -0.000000 -59.245600 -0.337356 -0.684267 7.710927 -0.577135 -0.488194 -1.765472 -3.995663 -0.601959 -1.219986 10.466091 5.110837 0.296246 -4.389764 -0.358172 1.666754 0.000000 0.000000 0.000000 -6.506278 -9.119416 2.822184 -64.178561 -9.225632 8.425425 -2.473726 -29.908715 0.000451 2.614930 -4.957813 -0.118528 -0.062608 0.134218 -0.000000 0.000000 0.000000 0.000000 0.000000 0.000000 0.000000 22.252326 3.881603 3.070552 49.967517 18.903563 -8.638305 2.741844 10.734743 0.004084 -2.401178 9.354929 -0.203778 0.056675 -0.139474 0.000000 0.000000 0.000000 0.000000 0.000000 0.000000 0.000000 
-1.863341 17.533397 -1.613857 118.825508 -63.040506 -94.861572 -5.378826 -2.102026 3.121271 -10.057838 -16.726924 -90.367625 -6.229284 -2.774759 -8.809776 -1.729747 -7.947788 15.239175 -2.346900 -0.000000 -57.962400 9.965987 5.533337 -3.665828 -14.483185 -1.517707 -29.186072 -0.299033 -0.215015 9.153126 -0.441891 -1.008293 1.450014 -0.523900 0.000000 -59.172801 -0.199279 -0.696949 7.675790 -0.539905 -0.502520 -1.763501 -3.963190 -0.616671 -1.200561 10.355511 5.222632 0.359757 -4.380498 -0.357737 1.682648 0.000000 0.000000 0.000000 -6.624856 -9.187669 2.817454 -64.059762 -9.513256 8.294813 -2.464524 -29.891944 0.000273 2.659136 -4.973078 -0.120926 -0.062895 0.136756 -0.000000 0.000000 0.000000 0.000000 0.000000 0.000000 0.000000 22.145459 3.952914 3.072564 49.910917 19.161072 -8.886838 2.731299 10.298601 0.003990 -2.403436 9.287981 -0.202582 0.056705 -0.139921 0.000000 0.000000 0.000000 0.000000 0.000000 0.000000 0.000000 
-1.865373 17.532044 -1.609720 118.973520 -62.993681 -94.884450 -5.461709 -2.026176 3.062309 -10.896808 -16.812190 -89.957255 -6.284956 -2.680556 -8.291105 -1.663622 -7.430071 15.393651 -2.147500 0.000001 -57.895900 9.930264 5.498997 -3.593536 -14.493497 -1.445673 -29.361973 -0.295439 -0.191991 9.070992 -0.440002 -1.017330 1.479410 -0.530500 0.000000 -59.077400 -0.030268 -0.710929 7.647622 -0.496609 -0.518314 -1.760505 -3.935972 -0.633001 -1.181389 10.254846 5.305659 0.417464 -4.373284 -0.357387 1.697413 0.000000 0.000000 0.000000 -6.728212 -9.257206 2.810793 -63.957480 -9.800147 8.171247 -2.454440 -29.874966 0.000083 2.705779 -4.989985 -0.123428 -0.063143 0.139253 -0.000000 0.000000 0.000000 0.000000 0.000000 0.000000 0.000000 22.051580 3.995068 3.073333 49.851109 19.425456 -9.063103 2.724373 9.934793 0.003928 -2.400718 9.218370 -0.200784 0.056816 -0.140231 0.000000 0.000000 0.000000 0.000000 0.000000 0.000000 0.000000 
-1.867887 17.530478 -1.605046 119.125553 -62.984679 -94.953726 -5.557760 -1.951512 2.991595 -11.738534 -16.866972 -89.452121 -6.318986 -2.558999 -7.652463 -1.575684 -6.778005 15.597391 -1.894499 -0.000000 -57.723200 9.886815 5.456571 -3.529719 -14.454568 -1.367477 -29.498606 -0.285327 -0.170616 9.020541 -0.437681 -1.023138 1.484755 -0.535700 0.000000 -58.963200 0.161955 -0.726091 7.629634 -0.448772 -0.535341 -1.756616 -3.913444 -0.650675 -1.165634 10.165936 5.382186 0.473657 -4.366294 -0.357039 1.712210 0.000000 0.000000 0.000000 -6.814694 -9.322992 2.804280 -63.871257 -10.085501 8.056548 -2.444433 -29.859081 -0.000111 2.753603 -5.007983 -0.126129 -0.063410 0.141758 -0.000000 0.000000 0.000000 0.000000 0.000000 0.000000 0.000000 21.962066 4.034364 3.072315 49.804370 19.664972 -9.237445 2.718864 9.653768 0.003905 -2.371999 9.154088 -0.197087 0.056732 -0.140509 0.000000 0.000000 0.000000 0.000000 0.000000 0.000000 0.000000 
-1.871081 17.528796 -1.599806 119.293917 -63.013697 -95.079525 -5.665041 -1.881911 2.908256 -12.566169 -16.876528 -88.845670 -6.329676 -2.417205 -6.937872 -1.471222 -6.038923 15.849591 -1.605800 -0.000000 -57.428200 9.834731 5.405117 -3.473505 -14.362618 -1.277188 -29.597326 -0.268665 -0.150387 8.998551 -0.435191 -1.028075 1.469423 -0.540100 -0.000001 -58.831101 0.377879 -0.740013 7.621473 -0.396880 -0.551305 -1.750821 -3.897074 -0.667421 -1.149889 10.091585 5.419794 0.520595 -4.361983 -0.356798 1.724884 0.000000 0.000000 0.000000 -6.881201 -9.389133 2.795037 -63.804334 -10.364174 7.945095 -2.433054 -29.852695 -0.000316 2.803001 -5.028545 -0.128930 -0.063603 0.144199 -0.000000 0.000000 0.000000 0.000000 0.000000 0.000000 0.000000 21.892937 4.035763 3.070854 49.752095 19.918961 -9.309103 2.717863 9.451096 0.003910 -2.344943 9.095398 -0.193688 0.056786 -0.140694 0.000000 0.000000 0.000000 0.000000 0.000000 0.000000 0.000000 
-1.875047 17.527055 -1.594016 119.491758 -63.078626 -95.272714 -5.781623 -1.820853 2.810671 -13.367516 -16.825930 -88.131626 -6.317529 -2.262378 -6.188787 -1.357751 -5.272464 16.143820 -1.304400 -0.000000 -57.024700 9.773326 5.343873 -3.423657 -14.215672 -1.168350 -29.658417 -0.245687 -0.130587 8.999881 -0.432900 -1.035066 1.436058 -0.544400 -0.000000 -58.679800 0.617842 -0.751456 7.623373 -0.340838 -0.565054 -1.743004 -3.886271 -0.682089 -1.134727 10.030298 5.424086 0.558615 -4.359763 -0.356628 1.735499 0.000000 0.000000 0.000000 -6.930602 -9.450799 2.783442 -63.755668 -10.636712 7.839041 -2.420267 -29.858461 -0.000528 2.854260 -5.051553 -0.131932 -0.063734 0.146596 -0.000000 0.000000 0.000000 0.000000 0.000000 0.000000 0.000000 21.839550 4.007184 3.068762 49.699061 20.178157 -9.296144 2.720600 9.332410 0.003945 -2.315220 9.044750 -0.190289 0.056909 -0.140840 0.000000 0.000000 0.000000 0.000000 0.000000 0.000000 0.000000 
-1.879820 17.525140 -1.588065 119.730257 -63.170940 -95.541439 -5.902266 -1.770248 2.698333 -14.133767 -16.703326 -87.299946 -6.285586 -2.103805 -5.455135 -1.242970 -4.531812 16.476084 -1.012200 0.000000 -56.558000 9.707131 5.275059 -3.376925 -14.024960 -1.042480 -29.690851 -0.217559 -0.111779 9.028871 -0.429813 -1.037107 1.383061 -0.547000 0.000001 -58.516600 0.869416 -0.760431 7.633239 -0.283351 -0.576615 -1.734467 -3.880816 -0.694678 -1.123337 9.984324 5.419043 0.593219 -4.358352 -0.356503 1.745611 0.000000 0.000000 0.000000 -6.958094 -9.505410 2.771558 -63.724780 -10.896711 7.736277 -2.407122 -29.880221 -0.000744 2.905624 -5.076273 -0.134933 -0.063860 0.148979 -0.000000 0.000000 0.000000 0.000000 0.000000 0.000000 0.000000 21.796773 3.975686 3.065470 49.659558 20.410059 -9.249721 2.724906 9.307145 0.004008 -2.271131 9.008356 -0.185988 0.056901 -0.141030 0.000000 0.000000 0.000000 0.000000 0.000000 0.000000 0.000000 
